<mxfile host="app.diagrams.net" agent="Mozilla/5.0 (Windows NT 10.0; Win64; x64) AppleWebKit/537.36 (KHTML, like Gecko) Chrome/128.0.0.0 Safari/537.36" version="24.7.12">
  <diagram name="Página-1" id="_q74NZWc1-7zATT4xdqB">
    <mxGraphModel dx="1735" dy="2260" grid="1" gridSize="10" guides="1" tooltips="1" connect="1" arrows="1" fold="1" page="1" pageScale="1" pageWidth="827" pageHeight="1169" math="0" shadow="0">
      <root>
        <mxCell id="0" />
        <mxCell id="1" parent="0" />
        <mxCell id="xBt6hWzBmi_SaboUUG8H-1" value="" style="whiteSpace=wrap;html=1;" parent="1" vertex="1">
          <mxGeometry x="210" y="-920" width="860" height="1290" as="geometry" />
        </mxCell>
        <mxCell id="xBt6hWzBmi_SaboUUG8H-3" value="Cliente&lt;div&gt;&lt;br&gt;&lt;/div&gt;" style="shape=umlActor;verticalLabelPosition=bottom;verticalAlign=top;html=1;outlineConnect=0;" parent="1" vertex="1">
          <mxGeometry x="180" y="-830" width="30" height="60" as="geometry" />
        </mxCell>
        <mxCell id="xBt6hWzBmi_SaboUUG8H-4" value="Atendente&lt;div&gt;&lt;br&gt;&lt;/div&gt;" style="shape=umlActor;verticalLabelPosition=bottom;verticalAlign=top;html=1;outlineConnect=0;" parent="1" vertex="1">
          <mxGeometry x="180" y="-530" width="30" height="60" as="geometry" />
        </mxCell>
        <mxCell id="xBt6hWzBmi_SaboUUG8H-18" style="rounded=0;orthogonalLoop=1;jettySize=auto;html=1;shape=flexArrow;endWidth=20;endSize=6.33;width=1;" parent="1" source="xBt6hWzBmi_SaboUUG8H-5" target="xBt6hWzBmi_SaboUUG8H-4" edge="1">
          <mxGeometry relative="1" as="geometry">
            <Array as="points">
              <mxPoint x="195" y="-300" />
            </Array>
          </mxGeometry>
        </mxCell>
        <mxCell id="xBt6hWzBmi_SaboUUG8H-5" value="Administrador" style="shape=umlActor;verticalLabelPosition=bottom;verticalAlign=top;html=1;outlineConnect=0;" parent="1" vertex="1">
          <mxGeometry x="180" y="-140" width="30" height="60" as="geometry" />
        </mxCell>
        <mxCell id="xBt6hWzBmi_SaboUUG8H-19" value="" style="endArrow=none;html=1;rounded=0;entryX=0;entryY=0.5;entryDx=0;entryDy=0;" parent="1" target="xBt6hWzBmi_SaboUUG8H-21" edge="1">
          <mxGeometry width="50" height="50" relative="1" as="geometry">
            <mxPoint x="220" y="-810" as="sourcePoint" />
            <mxPoint x="300" y="-770" as="targetPoint" />
          </mxGeometry>
        </mxCell>
        <mxCell id="xBt6hWzBmi_SaboUUG8H-21" value="Fazer pedidos&lt;div&gt;&lt;br&gt;&lt;/div&gt;" style="ellipse;whiteSpace=wrap;html=1;" parent="1" vertex="1">
          <mxGeometry x="480" y="-870" width="120" height="50" as="geometry" />
        </mxCell>
        <mxCell id="xBt6hWzBmi_SaboUUG8H-22" value="" style="endArrow=none;html=1;rounded=0;entryX=0;entryY=0.5;entryDx=0;entryDy=0;" parent="1" target="xBt6hWzBmi_SaboUUG8H-23" edge="1">
          <mxGeometry width="50" height="50" relative="1" as="geometry">
            <mxPoint x="210" y="-800" as="sourcePoint" />
            <mxPoint x="390" y="-730" as="targetPoint" />
          </mxGeometry>
        </mxCell>
        <mxCell id="xBt6hWzBmi_SaboUUG8H-23" value="&lt;div&gt;Editar pedidos&lt;/div&gt;" style="ellipse;whiteSpace=wrap;html=1;" parent="1" vertex="1">
          <mxGeometry x="480" y="-810" width="120" height="50" as="geometry" />
        </mxCell>
        <mxCell id="xBt6hWzBmi_SaboUUG8H-24" value="" style="endArrow=none;html=1;rounded=0;entryX=0;entryY=0.5;entryDx=0;entryDy=0;" parent="1" target="xBt6hWzBmi_SaboUUG8H-25" edge="1">
          <mxGeometry width="50" height="50" relative="1" as="geometry">
            <mxPoint x="220" y="-500" as="sourcePoint" />
            <mxPoint x="490" y="-690" as="targetPoint" />
          </mxGeometry>
        </mxCell>
        <mxCell id="xBt6hWzBmi_SaboUUG8H-25" value="Acompanhar pedidos" style="ellipse;whiteSpace=wrap;html=1;" parent="1" vertex="1">
          <mxGeometry x="380" y="-630" width="120" height="50" as="geometry" />
        </mxCell>
        <mxCell id="xBt6hWzBmi_SaboUUG8H-34" value="&lt;span style=&quot;line-height: 119%; font-family: Arial, sans-serif;&quot;&gt;Cadastrar dados da entrega&lt;/span&gt;" style="ellipse;whiteSpace=wrap;html=1;" parent="1" vertex="1">
          <mxGeometry x="414" y="-480" width="120" height="50" as="geometry" />
        </mxCell>
        <mxCell id="xBt6hWzBmi_SaboUUG8H-36" value="&lt;span style=&quot;line-height: 119%; font-family: Arial, sans-serif;&quot;&gt;estornar valor&lt;/span&gt;" style="ellipse;whiteSpace=wrap;html=1;" parent="1" vertex="1">
          <mxGeometry x="260" y="-360" width="120" height="50" as="geometry" />
        </mxCell>
        <mxCell id="xBt6hWzBmi_SaboUUG8H-38" value="" style="endArrow=none;html=1;rounded=0;entryX=0;entryY=0.5;entryDx=0;entryDy=0;" parent="1" target="0f_d-WYVPS4kNK5-5Bo3-6" edge="1">
          <mxGeometry width="50" height="50" relative="1" as="geometry">
            <mxPoint x="210" y="-500" as="sourcePoint" />
            <mxPoint x="370" y="-485" as="targetPoint" />
          </mxGeometry>
        </mxCell>
        <mxCell id="xBt6hWzBmi_SaboUUG8H-39" value="" style="endArrow=none;html=1;rounded=0;entryX=0;entryY=0.5;entryDx=0;entryDy=0;" parent="1" target="xBt6hWzBmi_SaboUUG8H-34" edge="1">
          <mxGeometry width="50" height="50" relative="1" as="geometry">
            <mxPoint x="220" y="-490" as="sourcePoint" />
            <mxPoint x="490" y="-300" as="targetPoint" />
          </mxGeometry>
        </mxCell>
        <mxCell id="xBt6hWzBmi_SaboUUG8H-40" value="" style="endArrow=none;html=1;rounded=0;entryX=0;entryY=0.5;entryDx=0;entryDy=0;" parent="1" target="0f_d-WYVPS4kNK5-5Bo3-5" edge="1">
          <mxGeometry width="50" height="50" relative="1" as="geometry">
            <mxPoint x="230" y="-460" as="sourcePoint" />
            <mxPoint x="410" y="-300" as="targetPoint" />
          </mxGeometry>
        </mxCell>
        <mxCell id="xBt6hWzBmi_SaboUUG8H-41" value="" style="endArrow=none;html=1;rounded=0;entryX=0;entryY=0.5;entryDx=0;entryDy=0;" parent="1" target="xBt6hWzBmi_SaboUUG8H-36" edge="1">
          <mxGeometry width="50" height="50" relative="1" as="geometry">
            <mxPoint x="220" y="-450" as="sourcePoint" />
            <mxPoint x="490" y="-300" as="targetPoint" />
          </mxGeometry>
        </mxCell>
        <mxCell id="xBt6hWzBmi_SaboUUG8H-43" value="Sistema" style="shape=umlActor;verticalLabelPosition=bottom;verticalAlign=top;html=1;outlineConnect=0;" parent="1" vertex="1">
          <mxGeometry x="310" y="220" width="30" height="60" as="geometry" />
        </mxCell>
        <mxCell id="xBt6hWzBmi_SaboUUG8H-45" value="&lt;p style=&quot;margin-left:0cm;text-indent:0cm&quot; class=&quot;MsoNormal&quot;&gt;&lt;span style=&quot;line-height: 119%; font-family: Arial, sans-serif;&quot;&gt;cadastrar produtos&lt;/span&gt;&lt;br&gt;&lt;/p&gt;" style="ellipse;whiteSpace=wrap;html=1;" parent="1" vertex="1">
          <mxGeometry x="230" y="-260" width="120" height="50" as="geometry" />
        </mxCell>
        <mxCell id="xBt6hWzBmi_SaboUUG8H-46" value="&lt;p style=&quot;margin-left:0cm;text-indent:0cm&quot; class=&quot;MsoNormal&quot;&gt;&lt;span style=&quot;line-height: 119%; font-family: Arial, sans-serif;&quot;&gt;cadastrar usuários&lt;/span&gt;&lt;br&gt;&lt;/p&gt;" style="ellipse;whiteSpace=wrap;html=1;" parent="1" vertex="1">
          <mxGeometry x="391" y="-130" width="120" height="50" as="geometry" />
        </mxCell>
        <mxCell id="xBt6hWzBmi_SaboUUG8H-48" value="&lt;span style=&quot;line-height: 119%; font-family: Arial, sans-serif;&quot;&gt;emitir relatório de produtos mais vendidos por período.&lt;/span&gt;" style="ellipse;whiteSpace=wrap;html=1;" parent="1" vertex="1">
          <mxGeometry x="342" y="-30" width="138" height="60" as="geometry" />
        </mxCell>
        <mxCell id="xBt6hWzBmi_SaboUUG8H-51" value="" style="endArrow=none;html=1;rounded=0;entryX=0;entryY=0.5;entryDx=0;entryDy=0;" parent="1" target="xBt6hWzBmi_SaboUUG8H-45" edge="1">
          <mxGeometry width="50" height="50" relative="1" as="geometry">
            <mxPoint x="210" y="-130" as="sourcePoint" />
            <mxPoint x="490" y="40" as="targetPoint" />
          </mxGeometry>
        </mxCell>
        <mxCell id="xBt6hWzBmi_SaboUUG8H-52" value="" style="endArrow=none;html=1;rounded=0;entryX=0;entryY=0.5;entryDx=0;entryDy=0;" parent="1" target="xBt6hWzBmi_SaboUUG8H-46" edge="1">
          <mxGeometry width="50" height="50" relative="1" as="geometry">
            <mxPoint x="220" y="-105" as="sourcePoint" />
            <mxPoint x="490" y="40" as="targetPoint" />
          </mxGeometry>
        </mxCell>
        <mxCell id="xBt6hWzBmi_SaboUUG8H-54" value="" style="endArrow=none;html=1;rounded=0;entryX=0;entryY=0.5;entryDx=0;entryDy=0;" parent="1" target="xBt6hWzBmi_SaboUUG8H-48" edge="1">
          <mxGeometry width="50" height="50" relative="1" as="geometry">
            <mxPoint x="220" y="-100" as="sourcePoint" />
            <mxPoint x="490" y="40" as="targetPoint" />
          </mxGeometry>
        </mxCell>
        <mxCell id="xBt6hWzBmi_SaboUUG8H-56" value="&lt;p style=&quot;margin-left:0cm;text-indent:0cm&quot; class=&quot;MsoNormal&quot;&gt;&lt;font face=&quot;Arial, sans-serif&quot;&gt;Fazer backup por periodo&lt;/font&gt;&lt;/p&gt;" style="ellipse;whiteSpace=wrap;html=1;" parent="1" vertex="1">
          <mxGeometry x="456" y="190" width="120" height="50" as="geometry" />
        </mxCell>
        <mxCell id="xBt6hWzBmi_SaboUUG8H-57" value="&lt;p style=&quot;margin-left:0cm;text-indent:0cm&quot; class=&quot;MsoNormal&quot;&gt;&lt;font face=&quot;Arial, sans-serif&quot;&gt;Fazer atualizações por periodo&lt;/font&gt;&lt;/p&gt;" style="ellipse;whiteSpace=wrap;html=1;" parent="1" vertex="1">
          <mxGeometry x="470" y="260" width="120" height="50" as="geometry" />
        </mxCell>
        <mxCell id="xBt6hWzBmi_SaboUUG8H-58" value="" style="endArrow=none;html=1;rounded=0;entryX=0;entryY=0.5;entryDx=0;entryDy=0;" parent="1" target="xBt6hWzBmi_SaboUUG8H-56" edge="1">
          <mxGeometry width="50" height="50" relative="1" as="geometry">
            <mxPoint x="350" y="230" as="sourcePoint" />
            <mxPoint x="490" y="410" as="targetPoint" />
          </mxGeometry>
        </mxCell>
        <mxCell id="xBt6hWzBmi_SaboUUG8H-59" value="" style="endArrow=none;html=1;rounded=0;entryX=0;entryY=0.5;entryDx=0;entryDy=0;" parent="1" target="xBt6hWzBmi_SaboUUG8H-57" edge="1">
          <mxGeometry width="50" height="50" relative="1" as="geometry">
            <mxPoint x="350" y="260" as="sourcePoint" />
            <mxPoint x="490" y="410" as="targetPoint" />
          </mxGeometry>
        </mxCell>
        <mxCell id="xBt6hWzBmi_SaboUUG8H-62" value="Sistema:&amp;nbsp;&lt;b style=&quot;text-indent: 0cm; background-color: initial;&quot;&gt;&lt;span style=&quot;line-height: 107%;&quot;&gt;&lt;font face=&quot;Helvetica&quot; style=&quot;font-size: 12px;&quot;&gt;Aplicativo&lt;br&gt;de pedidos de Restaurante Japonês&lt;/font&gt;&lt;/span&gt;&lt;/b&gt;&lt;p style=&quot;margin: 0cm 0.3pt 1.35pt 0cm; text-indent: 0cm; line-height: 107%;&quot; align=&quot;center&quot; class=&quot;MsoNormal&quot;&gt;&lt;b&gt;&lt;span style=&quot;font-size:18.0pt;mso-bidi-font-size:11.0pt;line-height:&lt;br/&gt;107%;font-family:&amp;quot;Calibri&amp;quot;,sans-serif;mso-fareast-font-family:Calibri&quot;&gt; &lt;/span&gt;&lt;/b&gt;&lt;/p&gt;" style="text;html=1;align=center;verticalAlign=middle;whiteSpace=wrap;rounded=0;" parent="1" vertex="1">
          <mxGeometry x="490" y="-910" width="230" height="40" as="geometry" />
        </mxCell>
        <mxCell id="0f_d-WYVPS4kNK5-5Bo3-1" value="" style="endArrow=none;html=1;rounded=0;entryX=0.269;entryY=0.109;entryDx=0;entryDy=0;entryPerimeter=0;" edge="1" parent="1" target="0f_d-WYVPS4kNK5-5Bo3-59">
          <mxGeometry width="50" height="50" relative="1" as="geometry">
            <mxPoint x="230" y="-790" as="sourcePoint" />
            <mxPoint x="700" y="-550" as="targetPoint" />
            <Array as="points">
              <mxPoint x="490" y="-650" />
            </Array>
          </mxGeometry>
        </mxCell>
        <mxCell id="0f_d-WYVPS4kNK5-5Bo3-3" value="" style="endArrow=none;html=1;rounded=0;entryX=0.5;entryY=0;entryDx=0;entryDy=0;" edge="1" parent="1" target="xBt6hWzBmi_SaboUUG8H-25">
          <mxGeometry width="50" height="50" relative="1" as="geometry">
            <mxPoint x="220" y="-780" as="sourcePoint" />
            <mxPoint x="440" y="-590" as="targetPoint" />
          </mxGeometry>
        </mxCell>
        <mxCell id="0f_d-WYVPS4kNK5-5Bo3-4" value="" style="endArrow=none;html=1;rounded=0;entryX=1;entryY=0.5;entryDx=0;entryDy=0;exitX=0.003;exitY=0.114;exitDx=0;exitDy=0;exitPerimeter=0;" edge="1" parent="1" source="xBt6hWzBmi_SaboUUG8H-1" target="0f_d-WYVPS4kNK5-5Bo3-6">
          <mxGeometry width="50" height="50" relative="1" as="geometry">
            <mxPoint x="220" y="-740" as="sourcePoint" />
            <mxPoint x="440" y="-690" as="targetPoint" />
          </mxGeometry>
        </mxCell>
        <mxCell id="0f_d-WYVPS4kNK5-5Bo3-5" value="&lt;span style=&quot;line-height: 119%; font-family: Arial, sans-serif;&quot;&gt;&lt;font style=&quot;font-size: 12px;&quot;&gt;Emitir relatórios dos pedidos do dia&lt;/font&gt;&lt;/span&gt;" style="ellipse;whiteSpace=wrap;html=1;" vertex="1" parent="1">
          <mxGeometry x="400" y="-410" width="120" height="50" as="geometry" />
        </mxCell>
        <mxCell id="0f_d-WYVPS4kNK5-5Bo3-6" value="&lt;span style=&quot;line-height: 119%; font-family: Arial, sans-serif;&quot;&gt;cancelar pedido&lt;/span&gt;" style="ellipse;whiteSpace=wrap;html=1;" vertex="1" parent="1">
          <mxGeometry x="250" y="-659" width="120" height="50" as="geometry" />
        </mxCell>
        <mxCell id="0f_d-WYVPS4kNK5-5Bo3-59" value="Fazer login&amp;nbsp;" style="ellipse;whiteSpace=wrap;html=1;" vertex="1" parent="1">
          <mxGeometry x="707" y="-530" width="120" height="50" as="geometry" />
        </mxCell>
        <mxCell id="0f_d-WYVPS4kNK5-5Bo3-60" value="" style="endArrow=none;html=1;rounded=0;" edge="1" parent="1" target="0f_d-WYVPS4kNK5-5Bo3-59">
          <mxGeometry width="50" height="50" relative="1" as="geometry">
            <mxPoint x="220" y="-490" as="sourcePoint" />
            <mxPoint x="670" y="-360" as="targetPoint" />
          </mxGeometry>
        </mxCell>
        <mxCell id="0f_d-WYVPS4kNK5-5Bo3-62" value="" style="endArrow=none;html=1;rounded=0;entryX=0;entryY=0.5;entryDx=0;entryDy=0;" edge="1" parent="1" target="0f_d-WYVPS4kNK5-5Bo3-63">
          <mxGeometry width="50" height="50" relative="1" as="geometry">
            <mxPoint x="240" y="-110" as="sourcePoint" />
            <mxPoint x="670" y="-360" as="targetPoint" />
          </mxGeometry>
        </mxCell>
        <mxCell id="0f_d-WYVPS4kNK5-5Bo3-63" value="consultar pedido" style="ellipse;whiteSpace=wrap;html=1;" vertex="1" parent="1">
          <mxGeometry x="940" y="-480" width="120" height="50" as="geometry" />
        </mxCell>
        <mxCell id="0f_d-WYVPS4kNK5-5Bo3-65" value="" style="endArrow=none;html=1;rounded=0;entryX=0.5;entryY=0;entryDx=0;entryDy=0;" edge="1" parent="1" target="0f_d-WYVPS4kNK5-5Bo3-63">
          <mxGeometry width="50" height="50" relative="1" as="geometry">
            <mxPoint x="300" y="-760" as="sourcePoint" />
            <mxPoint x="670" y="-380" as="targetPoint" />
          </mxGeometry>
        </mxCell>
      </root>
    </mxGraphModel>
  </diagram>
</mxfile>
